<svg height="53" viewBox="0 0 241 53" width="241" xmlns="http://www.w3.org/2000/svg"><g fill="none" fill-rule="evenodd"><path d="m19.9170124 0 19.889532 12.611546c.0169111.0115394.0274805.0304221.0274805.0503539v17.1528355c0 .0482558-.0528471.0765798-.0919539.0514029l-19.8250586-12.5716825z" fill="#43ee91"></path><path d="m19.9170124 0-19.88953191 12.611546c-.01691107.0115394-.02748049.0304221-.02748049.0503539v17.1528355c0 .0482558.05284709.0765798.09301088.0514029l19.82400152-12.5716825z" fill="#005450"></path><path d="m24.8378188 39.8340249h-9.8416127c-.0328122 0-.0584468-.0247369-.0584468-.0564v-8.8488661c0-.0316632.0256346-.0573895.0584468-.0573895h9.8416127c.0317868 0 .0584468.0257263.0584468.0573895v8.8488661c0 .0316631-.02666.0564-.0584468.0564" fill="#43ee91"></path><path d="m240.157634 39.2450983c0 1.8739704-1.424674 3.2612896-3.222897 3.2612896-1.799261 0-3.26129-1.3873192-3.26129-3.2612896 0-1.8366156 1.462029-3.2602521 3.26129-3.2602521 1.798223 0 3.222897 1.4236365 3.222897 3.2602521zm-21.499816 1.2866685c-3.166865 0-4.725394-2.0254653-4.725394-5.97367v-14.4418167c1.193281-1.0905554 2.856612-1.8179382 4.569749-1.8179382 4.884152 0 7.220908 4.4151409 7.220908 10.8049029s-2.649085 11.428522-7.065263 11.428522zm4.001124-26.5977215c-3.658704 0-6.310902 1.7712445-8.062431 3.9679197-.222054.2780864-.664087.1214034-.664087-.2334681v-3.214596h-10.337967v1.7162498l2.355434 1.3738299c.471087.2760112.761625.7803022.761625 1.3250611v30.1308718c0 1.8179382-.832184 2.1302666-3.22186 2.285912v1.7141745h14.701226v-1.7141745c-3.271666-.2604467-4.258458-.4679738-4.258458-2.442595v-7.7916081c1.141399.9867917 3.064139 1.4547655 5.193368 1.4547655 7.739726 0 13.871117-5.7671804 13.871117-15.948464 0-8.000173-4.001124-12.6238786-10.337967-12.6238786zm-18.547742-6.59625157c-3.635876.41505436-4.155732.83010873-4.155732 3.63587627v18.4408655c0 8.9361206-6.129315 13.0918524-13.819235 13.0918524-9.194492 0-14.700188-4.2594954-14.700188-13.1956159v-18.3889838c0-2.85764933-.518818-3.16894011-4.15677-3.58399447v-1.81897577h15.896583v1.81897577c-3.635877.41505436-4.15677.72634514-4.15677 3.58399447v17.8701658c0 6.3378802 2.753886 10.1812836 8.468147 10.1812836s9.662466-3.0132947 9.662466-10.493612v-17.5059556c0-2.80576754-.675501-3.2727037-4.934997-3.63587627v-1.81897577h11.896496zm-43.793424 32.93456407v1.7141746h-13.611708v-1.7141746c2.389676-.1556454 3.16894-.4669362 3.16894-2.2859119v-15.1691995c0-3.0122571-1.141399-4.5189045-3.999049-4.5189045-2.183186 0-4.156769.9867918-5.819062 2.1302666v17.5578374c0 1.8189757.779265 2.1302665 3.16894 2.2859119v1.7141746h-13.61067v-1.7141746c2.441557-.1556454 3.273741-.4669362 3.273741-2.2859119v-19.1174042c0-.5447589-.290538-1.0490499-.761625-1.3250611l-2.355433-1.3738299v-1.7162498h10.285047v3.5860697c0 .3403446.41713.5094792.647485.2604466 2.154132-2.317041 4.961975-4.3663719 8.963099-4.3663719 4.883115 0 7.428435 2.8057675 7.428435 8.4681467v15.5842539c0 1.8189757.832184 2.1302665 3.22186 2.2859119zm-40.003978-25.8184569h8.675674v1.7141745c-1.818975.5198556-2.182148.8830282-2.649084 1.9746212l-9.819149 24.208046h-2.232992l-6.234117-16.7796105-6.909618 16.7796105h-2.1811103l-10.2860849-24.208046c-.4679738-1.091593-.7792645-1.4547656-2.6490845-1.9746212v-1.7141745h13.557751v1.7141745c-1.9735836.2604466-2.9603753.5717374-2.9603753 1.7152122 0 .4150543.0518818.8830281.3112908 1.4537279l5.5067342 14.2861713 4.467022-11.1172312-1.609373-4.363259c-.416092-1.091593-.883028-1.5066474-2.545321-1.9746212v-1.7141745h13.194578v1.7141745c-2.182148.3123284-3.324585.4679738-3.324585 1.8189758 0 .3631725.051882.7792645.207527 1.3499643l4.986878 13.9219611 5.454852-13.9219611c.155646-.5198556.259409-1.0386736.259409-1.4028838 0-1.2462007-1.090555-1.5056097-3.220822-1.7660563zm-50.911606 25.9222205c-6.4935256 0-9.2982555-8.2595819-9.2982555-16.9352558 0-8.4152273 2.7528481-16.31163669 8.8313193-16.31163669 6.5454074 0 9.2982555 8.25958189 9.2982555 16.93525579 0 8.4152274-2.7009663 16.3116367-8.8313193 16.3116367zm.1048012-35.3761214c-9.9747941 0-17.5069932 7.5840809-17.5069932 19.4805768 0 9.5576644 5.8699064 18.0258111 16.883374 18.0258111 9.9737565 0 17.5069933-7.5851185 17.5069933-19.4805767 0-9.5587021-5.9228258-18.0258112-16.8833741-18.0258112z" fill="#005450"></path></g></svg>
